<?xml version="1.0" standalone="no"?>
<!DOCTYPE svg PUBLIC "-//W3C//DTD SVG 20010904//EN"
 "http://www.w3.org/TR/2001/REC-SVG-20010904/DTD/svg10.dtd">
<svg version="1.0" xmlns="http://www.w3.org/2000/svg"
 width="180.000000pt" height="180.000000pt" viewBox="0 0 180.000000 180.000000"
 preserveAspectRatio="xMidYMid meet">

<g transform="translate(0.000000,180.000000) scale(0.100000,-0.100000)"
fill="#000000" stroke="none">
<path d="M1243 1516 c-102 -38 -184 -120 -231 -228 l-12 -28 -407 0 c-387 0
-410 -1 -440 -20 -63 -38 -63 -36 -63 -491 l0 -411 38 -38 c31 -32 47 -39 92
-45 30 -3 280 -5 555 -3 560 3 540 1 583 76 21 38 22 50 22 265 l0 225 38 7
c69 13 101 31 95 54 -6 25 -3 24 -44 7 -128 -53 -299 -12 -368 87 -41 61 -54
112 -49 203 6 136 69 233 188 292 47 23 67 27 145 27 81 0 95 -3 142 -29 86
-48 125 -119 125 -232 0 -101 -41 -176 -105 -190 -23 -5 -34 -2 -44 12 -18 25
-16 57 8 180 17 81 19 108 10 117 -6 6 -45 13 -87 15 -68 4 -81 1 -137 -26
-85 -43 -129 -107 -135 -196 -5 -72 11 -107 59 -132 57 -29 121 -11 182 52
l37 38 0 -27 c0 -17 10 -38 26 -54 54 -54 170 -7 218 88 49 99 31 244 -40 327
-55 65 -130 95 -244 99 -81 3 -104 0 -157 -21z m212 -242 c-13 -88 -35 -143
-74 -184 -32 -34 -44 -40 -78 -40 -64 0 -89 43 -71 123 10 50 56 108 103 132
17 8 52 15 79 15 l48 0 -7 -46z m-464 -146 c3 -61 10 -94 26 -124 l21 -42 -26
-24 c-72 -66 -245 -198 -267 -204 -16 -4 -35 1 -54 12 -42 26 -531 426 -531
434 0 24 67 29 436 29 l392 1 3 -82z m-661 -157 c63 -52 123 -102 133 -111 18
-17 15 -20 -69 -91 -48 -41 -102 -85 -120 -99 -18 -14 -55 -45 -83 -68 l-51
-44 0 282 0 282 38 -28 c20 -16 89 -71 152 -123z m835 -117 c28 -13 75 -27
105 -31 l55 -8 2 -120 c0 -66 -1 -123 -4 -128 -2 -4 -11 -1 -19 8 -8 8 -84 71
-170 141 -85 70 -153 128 -152 130 2 1 23 18 47 37 l44 35 21 -20 c12 -11 44
-31 71 -44z m-561 -107 c114 -94 153 -91 283 20 l53 45 60 -52 c34 -29 76 -65
95 -79 19 -14 78 -63 132 -107 l99 -82 -4 -68 c-3 -53 -9 -74 -25 -92 l-20
-22 -544 0 -544 0 -24 25 c-22 21 -25 33 -25 92 l0 68 167 135 c91 74 178 145
192 157 30 24 26 25 105 -40z"/>
<path d="M510 395 l0 -25 223 0 222 0 1 25 2 25 -224 0 -224 0 0 -25z"/>
</g>
</svg>
